# xmcd
#
# Track frame offsets: 
#        150
#        11103
#        27812
#        41555
#        60958
#        80316
#        93228
#        104277
#        119402
#        135588
#        162771
#
# Disc length: 2397 seconds
#
# Revision: 0
# Processed by: cddbd v1.5.2PL0 Copyright (c) Steve Scherf et al.
# Submitted via: ExactAudioCopy v0.99pb3
#
DISCID=7c095b0b
DTITLE=James Cotton Blues Band - Pure Cotton
DYEAR=1968
DGENRE=Blues
TTITLE0=Soul Survivor
TTITLE1=I Remember
TTITLE2=Worried Life Blues
TTITLE3=Fallin' Rain
TTITLE4=Heart Attack
TTITLE5=Lovin' Cup
TTITLE6=She's Murder
TTITLE7=Somethin' You Got
TTITLE8=Red Riding Hood?
TTITLE9=The Creeper
TTITLE10=Down At Your Buryin'
EXTD=
EXTT0=
EXTT1=
EXTT2=
EXTT3=
EXTT4=
EXTT5=
EXTT6=
EXTT7=
EXTT8=
EXTT9=
EXTT10=
PLAYORDER=
